<svg width="600" height="600" xmlns="http://www.w3.org/2000/svg" version="1.1">
 <defs id="defs5707">
  <linearGradient id="linearGradient2865" x1="-0.20569" y1="0.86032" x2="1.00729" y2="0.99064">
   <stop id="stop3592" stop-color="#0f0" offset="0"/>
   <stop id="stop3598" stop-color="#ff0" offset="0.48673"/>
   <stop id="stop3600" stop-color="#ff7f00" offset="0.74336"/>
   <stop id="stop3594" stop-color="#f00" offset="1"/>
  </linearGradient>
  <linearGradient id="linearGradient2868" x1="0.22084" y1="-0.88595" x2="0.69433" y2="1.46094">
   <stop id="stop4988" stop-color="#fff" offset="0"/>
   <stop id="stop4990" stop-color="#fff" stop-opacity="0" offset="1"/>
  </linearGradient>
  <linearGradient id="linearGradient2864" x1="0.75888" y1="0.97385" x2="0.19729" y2="-0.20658">
   <stop id="stop4839" offset="0"/>
   <stop id="stop4841" stop-color="#edede9" offset="1"/>
  </linearGradient>
  <linearGradient id="linearGradient2894" x1="0.27988" y1="-0.00046" x2="0.69879" y2="1.02174">
   <stop id="stop4786" stop-color="#333" offset="0"/>
   <stop id="stop4788" stop-color="#ced1d0" offset="1"/>
  </linearGradient>
 </defs>
 <metadata id="metadata4905">image/svg+xmlOpenclipart2010-05-13T12:41:56speedmeterhttp://openclipart.org/detail/60097/speedmeter-by-voyeg3rvoyeg3rcarclip artclipartspeedmetertransportationvehicle</metadata>
 <g>
  <title>Layer 1</title>
  <g id="svg_5">
   <path d="m458.57722,459.62065c86.93168,-86.92983 86.99097,-228.29261 0.05873,-315.22244c-86.93224,-86.92983 -228.29757,-86.8724 -315.22925,0.05836c-86.93168,86.93076 -86.93168,228.2185 0,315.14833c86.93168,86.92983 228.22346,86.92983 315.15514,0l0.01538,0.01575z" id="path4723" fill="#4d4d4d"/>
   <path d="m440.43965,436.81456l-4.66378,4.66368l-15.54617,-15.54584l4.66378,-4.66368l15.54617,15.54584zm49.43545,-89.03638l-1.70712,6.37078l-21.23638,-5.69009l1.70708,-6.37078l21.23638,5.69009l0.00004,0zm-1.70699,-101.82564l1.70706,6.37078l-21.23638,5.69009l-1.70708,-6.37078l21.23638,-5.69009l0.00002,0zm-52.39246,-87.33002l4.66378,4.66368l-15.54617,15.54584l-4.66378,-4.66368l15.54617,-15.54584zm-273.54206,282.85535l-4.66378,-4.66368l15.54617,-15.54584l4.66378,4.66368l-15.54617,15.54584zm-52.39246,-87.33002l-1.70708,-6.37078l21.23638,-5.69009l1.70708,6.37078l-21.23638,5.69009zm-1.70714,-101.82564l1.7071,-6.37078l21.23638,5.69009l-1.7071,6.37078l-21.23638,-5.69009zm49.43545,-89.03638l4.66378,-4.66368l15.54617,15.54584l-4.66378,4.66368l-15.54617,-15.54565l0,-0.00019zm87.33188,-52.39134l6.37091,-1.70704l5.69021,21.23593l-6.37091,1.70704l-5.69021,-21.23593zm101.8279,-1.70704l6.37091,1.70703l-5.69021,21.23593l-6.37091,-1.70704l5.69021,-21.23593l0,0.00002l0,-0.00001z" id="rect4749" fill="#ffffff"/>
   <path d="m455.74348,133.70302c-84.16365,-85.23935 -221.0162,-85.18143 -305.18727,0.05717c-136.78585,142.2443 17.84897,167.47834 153.99803,177.19307c149.8534,-13.40503 270.65175,-44.56075 151.18553,-177.24912l0,-0.00013l0.00371,-0.00099z" id="path4984" opacity="0.47331" fill="url(#linearGradient2868)" stroke="null"/>
   <text fill="#ffffff" x="376.09108" y="411" id="svg_1" stroke-width="0" font-size="10.24px" font-family="Arial" text-anchor="start" xml:space="preserve" font-weight="bold" stroke="null" transform="matrix(1.80709 0 0 1.7148 -310.905 -250.118)">MAX</text>
   <path d="m299.51843,75.33885c-57.22817,0.01482 -114.45634,21.83621 -158.04076,65.4197c-87.16884,87.16698 -87.16884,228.8299 0,315.98206l12.3546,-12.35434c-80.34325,-80.34154 -80.34325,-210.93258 0,-291.28524c80.34325,-80.34154 210.93717,-80.34154 291.29154,0c80.34325,80.34154 80.34325,210.93258 0,291.28524c-3.4139,3.41383 -6.94305,6.66036 -10.53055,9.78405l11.52549,13.18362c3.91582,-3.40494 7.69045,-6.94401 11.35967,-10.61315c87.16884,-87.16698 87.25221,-228.90401 0.08282,-316.0747c-43.59553,-43.56311 -100.82741,-65.33262 -158.05929,-65.3178l0.01649,-0.00945l-0.00001,0.00001z" id="path4552" fill="url(#linearGradient2865)"/>
   <text fill="#ffffff" x="245.4773" y="413.14515" id="svg_4" font-size="10.24px" font-family="Arial" text-anchor="start" xml:space="preserve" font-weight="bold" stroke="null" transform="matrix(1.86748 0 0 1.80747 -271.566 -291.015)">MIN</text>
  </g>
  <g id="svg_3" stroke="null">
   <path d="m462.87618,462.15769c89.80423,-89.8469 89.86548,-235.95333 0.06068,-325.80023c-89.80481,-89.8469 -235.84138,-89.78754 -325.64561,0.06032c-89.80424,89.84786 -89.80424,235.87673 0,325.72363c89.80423,89.8469 235.76481,89.8469 325.56904,0l0.01589,0.01628z" id="svg_7" fill="none" stroke-width="13.887" stroke="url(#linearGradient2894)"/>
   <path d="m471.06404,471.40708c94.0365,-94.83998 94.10063,-249.06602 0.06353,-343.906c-94.0371,-94.83998 -246.95603,-94.77732 -340.99253,0.06367c-94.0365,94.84099 -94.0365,248.98517 0,343.82516c94.0365,94.83998 246.87587,94.83998 340.91237,0l0.01663,0.01719l0,-0.00001l0,-0.00001z" id="path4782" fill="none" stroke-width="13.887" stroke="url(#linearGradient2894)"/>
  </g>
  <g id="svg_2" stroke="null">
   <path d="m299.98088,51.81701c-64.76562,0.01709 -129.48484,24.20555 -178.74659,72.59766c-98.52158,96.78612 -98.52158,254.41543 0,351.18826c98.52158,96.78612 258.9774,96.78612 357.48545,0c98.52158,-96.78612 98.61435,-254.49137 0.0889,-351.28319c-49.26368,-48.39781 -114.06602,-72.52931 -178.8297,-72.51222l0.00193,0.00949l0.00001,0z" id="path4814" fill="none" stroke-width="8.4494" stroke="url(#linearGradient2864)"/>
   <path d="m299.47346,57.81678c-63.07297,0.01668 -126.10078,23.62038 -174.07509,70.84263c-95.94673,94.44633 -95.94673,248.26498 0,342.69834c95.94674,94.44633 252.20907,94.44633 348.14263,0c95.94673,-94.44633 96.03708,-248.33909 0.08658,-342.79098c-47.9762,-47.2278 -111.08493,-70.77593 -174.15602,-70.75925l0.00189,0.00926l0.00001,0z" id="svg_8" fill="none" stroke-width="8.4494" stroke="url(#linearGradient2864)"/>
  </g>
 </g>
</svg>